<?xml version="1.0" encoding="UTF-8"?>
<svg id="Layer_2" data-name="Layer 2" xmlns="http://www.w3.org/2000/svg" viewBox="0 0 374.7 131.89">
  <defs>
    <style>
      .cls-1 {
        fill: #d9ff2e;
      }
    </style>
  </defs>
  <g id="Layer_1-2" data-name="Layer 1">
    <g>
      <g>
        <path class="cls-1" d="m55.88,46.17c2.78,3.5,4.31,7.84,4.57,13,.26,5.16-.78,10.43-3.13,15.8-3.5,8.11-9.05,14.65-16.63,19.62-7.58,4.97-16.34,7.81-26.28,8.53h-.07c-.38,0-.71-.12-.97-.36-.26-.24-.4-.55-.4-.94-.05-.38.06-.72.32-1.01.26-.29.56-.43.9-.43,9.41-.67,17.7-3.35,24.88-8.03,7.18-4.68,12.42-10.84,15.73-18.47,2.16-4.94,3.13-9.74,2.92-14.4-.22-4.66-1.55-8.52-4-11.59-2.69-3.31-6.38-5.28-11.09-5.9-4.08,4.22-8.95,8.16-14.62,11.81-5.66,3.65-10.03,5.66-13.1,6.05-5.47,27.31-8.54,44.45-9.22,51.41.1-.24.19-.48.29-.72.14-.38.4-.65.76-.79s.72-.14,1.08,0c.36.14.61.4.76.76.14.36.14.71,0,1.04-.82,2.02-1.5,3.44-2.05,4.28-.55.84-1.14,1.26-1.76,1.26-.19,0-.38-.05-.58-.14-.53-.14-.89-.49-1.08-1.04-.19-.55-.25-1.85-.18-3.89.07-2.04.44-5.1,1.12-9.18.67-4.08,1.67-9.67,2.99-16.78,1.32-7.1,3.06-16.06,5.22-26.86-.67-.62-.89-1.46-.65-2.52.48-1.73,1.2-3.38,2.16-4.97.86-4.27,1.8-8.95,2.81-14.04,3.02-14.74,4.99-24.55,5.9-29.45-2.26.58-4.37,1.37-6.34,2.38-3.5,1.68-6.35,3.85-8.53,6.52-2.18,2.66-3.62,5.64-4.32,8.93-.7,3.29-.64,6.88.18,10.76.1.38.04.73-.18,1.04-.22.31-.5.52-.86.61-.36.1-.71.04-1.04-.18-.34-.22-.53-.52-.58-.9-1.44-6.43-.92-12.2,1.55-17.32,2.47-5.11,6.66-9.11,12.56-11.99,2.54-1.25,5.26-2.18,8.14-2.81.1-.58.19-1.03.29-1.37,0-.24.08-.46.25-.65.17-.19.37-.32.61-.4.24-.07.48-.08.72-.04.38.05.68.23.9.54.22.31.28.66.18,1.04v.29c4.94-.72,9.64-.48,14.08.72,4.44,1.2,7.81,3.22,10.12,6.05,1.39,1.68,2.31,3.53,2.77,5.54.46,2.02.55,3.94.29,5.76-.26,1.82-.8,3.73-1.62,5.72-.82,1.99-1.67,3.71-2.56,5.15-.89,1.44-1.86,2.86-2.92,4.25-.38.58-.84,1.15-1.37,1.73,4.66.96,8.35,3.14,11.09,6.55Zm-40.39,10.8c2.5-.72,6.1-2.52,10.8-5.4,4.7-2.88,8.93-6.12,12.67-9.72-1.87,0-3.84.22-5.9.65-3.31.67-6.49,1.87-9.54,3.6-3.05,1.73-5.44,3.94-7.16,6.62-.34,1.73-.62,3.14-.86,4.25Zm26.06-17.86c.91-.96,1.73-1.92,2.45-2.88,3.5-4.75,5.62-9.1,6.34-13.03.72-3.94-.02-7.25-2.23-9.94-2.11-2.54-5.26-4.32-9.43-5.33-4.18-1.01-8.59-1.1-13.25-.29-.91,4.94-2.95,15.12-6.12,30.53-.72,3.5-1.32,6.48-1.8,8.93,3.94-3.7,8.95-6.14,15.05-7.34,3.17-.62,6.17-.84,9-.65Z"/>
        <path class="cls-1" d="m90.29,59.31c.38-.07.73,0,1.04.22.31.22.49.52.54.9.05.38-.02.72-.22,1.01-5.42,7.58-10.37,12.96-14.83,16.13-1.78,1.25-3.53,1.87-5.26,1.87-1.34,0-2.52-.36-3.53-1.08-.58-.43-1.09-1.01-1.55-1.73-.46-.72-.85-1.73-1.19-3.02-.34-1.3-.4-3-.18-5.11.22-2.11.76-4.51,1.62-7.2v-.07c1.34-4.37,2.98-7.82,4.9-10.37,1.92-2.54,3.65-3.84,5.18-3.89,1.1-.05,1.82.43,2.16,1.44.53,1.39-.1,3.36-1.87,5.9-1.78,2.54-4.39,5.28-7.85,8.21-.58,1.87-.98,3.6-1.22,5.18-.24,1.58-.32,2.84-.25,3.78.07.94.24,1.75.5,2.45.26.7.5,1.19.72,1.48.22.29.44.53.68.72,1.44,1.06,3.29.77,5.54-.86,4.22-2.98,8.93-8.11,14.11-15.41.24-.29.55-.47.94-.54Zm-13.97-9.32c-1.68,1.06-3.34,3.34-4.97,6.84,2.78-2.78,4.44-5.06,4.97-6.84Z"/>
        <path class="cls-1" d="m118.48,59.24c.36-.12.71-.1,1.04.07.33.17.58.43.72.79.14.36.12.71-.07,1.04-1.3,2.78-2.76,5.64-4.39,8.57-1.63,2.93-3.42,5.89-5.36,8.89-1.94,3-3.88,5.45-5.8,7.34-1.92,1.9-3.55,2.84-4.9,2.84-.34,0-.65-.07-.94-.22-1.97-.77-2.59-3.74-1.87-8.93.67-4.85,2.45-11.71,5.33-20.59-.05,0-.08.01-.11.04-.02.02-.06.04-.11.04-1.06.72-1.93,1.27-2.63,1.66-.7.38-1.63.82-2.81,1.3-1.18.48-2.29.7-3.35.65-1.06-.05-2.04-.38-2.95-1.01-1.83-1.3-2.76-3.1-2.81-5.4-.05-2.3.82-4.82,2.59-7.56,1.1-1.73,2.44-3.24,4-4.54,1.56-1.3,2.89-1.58,4-.86.67.38,1.07,1.01,1.19,1.87.12.86-.3,2.53-1.26,5-.96,2.47-2.57,5.7-4.82,9.68,1.49.19,3.94-.84,7.34-3.1.62-.43,1.09-.73,1.4-.9.31-.17.67-.35,1.08-.54.41-.19.76-.26,1.04-.22.29.05.58.17.86.36.72.58.84,1.58.36,3.02-4.8,14.88-6.7,23.9-5.69,27.07.1.19.17.34.22.43.38.05.97-.26,1.76-.94.79-.67,1.78-1.73,2.95-3.17,1.18-1.44,2.45-3.17,3.82-5.18,1.37-2.02,2.88-4.49,4.54-7.42,1.66-2.93,3.25-6.05,4.79-9.36.19-.38.47-.64.83-.76Zm-27.97-4.86c-.43,1.68-.34,3.02.29,4.03,3.5-6.1,5.38-10.22,5.62-12.38-.58.34-1.24.89-1.98,1.66-.74.77-1.51,1.76-2.3,2.99-.79,1.22-1.33,2.46-1.62,3.71Z"/>
        <path class="cls-1" d="m139.97,59.31c.38-.07.73,0,1.04.22.31.22.49.52.54.9.05.38-.02.72-.22,1.01-5.42,7.58-10.37,12.96-14.83,16.13-1.78,1.25-3.53,1.87-5.26,1.87-1.34,0-2.52-.36-3.53-1.08-.58-.43-1.09-1.01-1.55-1.73-.46-.72-.85-1.73-1.19-3.02-.34-1.3-.4-3-.18-5.11.22-2.11.76-4.51,1.62-7.2v-.07c1.34-4.37,2.98-7.82,4.9-10.37,1.92-2.54,3.65-3.84,5.18-3.89,1.1-.05,1.82.43,2.16,1.44.53,1.39-.1,3.36-1.87,5.9-1.78,2.54-4.39,5.28-7.85,8.21-.58,1.87-.98,3.6-1.22,5.18-.24,1.58-.32,2.84-.25,3.78.07.94.24,1.75.5,2.45.26.7.5,1.19.72,1.48.22.29.44.53.68.72,1.44,1.06,3.29.77,5.54-.86,4.22-2.98,8.93-8.11,14.11-15.41.24-.29.55-.47.94-.54Zm-13.97-9.32c-1.68,1.06-3.34,3.34-4.97,6.84,2.78-2.78,4.44-5.06,4.97-6.84Z"/>
        <path class="cls-1" d="m167.97,59.24c.38-.07.73-.01,1.04.18.31.19.52.48.61.86.1.38.05.72-.14,1.01-2.69,4.37-6.38,8.58-11.09,12.64-4.71,4.06-8.69,6.08-11.95,6.08-.38,0-.74-.02-1.08-.07-2.3-.43-3.72-2.09-4.25-4.97-.1-.43-.01-.83.25-1.19.26-.36.83-.9,1.69-1.62,1.78-1.54,3.07-2.83,3.89-3.89.58-.77,1.06-1.57,1.44-2.41.38-.84.62-1.54.72-2.09.1-.55.1-1,0-1.33-1.1.43-2.54,2.04-4.32,4.82-1.3,2.02-2.6,4.54-3.92,7.56-1.32,3.02-2.32,5.54-2.99,7.56-.67,2.02-1.56,4.78-2.66,8.28l-.36,1.01c-.19.62-.62.94-1.3.94h-.22c-.24-.05-.44-.13-.61-.25-.17-.12-.3-.29-.4-.5-.1-.22-.14-.44-.14-.68,0-1.06,1.24-7.15,3.71-18.29,2.47-11.14,4.91-21.84,7.31-32.11.05-.1.07-.22.07-.36.86-3.6,1.54-6.41,2.02-8.42,1.63-6.62,3.52-12.26,5.65-16.92,2.14-4.66,4-7.15,5.58-7.49.77-.14,1.39.12,1.87.79.53.62.61,1.92.25,3.89-.36,1.97-1.07,4.37-2.12,7.2-1.06,2.83-2.5,6.13-4.32,9.9-1.82,3.77-3.91,7.79-6.26,12.06-2.35,9.94-4.71,20.26-7.06,30.96,1.15-2.54,2.33-4.75,3.53-6.62,2.74-4.22,5.09-6.26,7.06-6.12,1.01.1,1.7.62,2.09,1.58.48,1.01.48,2.34,0,4-.48,1.66-1.3,3.25-2.45,4.79-.91,1.15-2.33,2.57-4.25,4.25-.43.38-.72.65-.86.79.34,1.25.96,1.97,1.87,2.16,2.16.38,5.51-1.22,10.04-4.82,4.54-3.6,8.27-7.78,11.2-12.53.19-.33.48-.54.86-.61Zm-12.02-47.63c-2.59,3.79-5.04,10.06-7.34,18.79,4.18-8.5,6.62-14.76,7.34-18.79Z"/>
        <path class="cls-1" d="m189.43,59.31c.38-.07.73,0,1.04.22.31.22.49.52.54.9.05.38-.02.72-.22,1.01-5.42,7.58-10.37,12.96-14.83,16.13-1.78,1.25-3.53,1.87-5.26,1.87-1.34,0-2.52-.36-3.53-1.08-.58-.43-1.09-1.01-1.55-1.73-.46-.72-.85-1.73-1.19-3.02-.34-1.3-.4-3-.18-5.11.22-2.11.76-4.51,1.62-7.2v-.07c1.34-4.37,2.98-7.82,4.9-10.37,1.92-2.54,3.65-3.84,5.18-3.89,1.1-.05,1.82.43,2.16,1.44.53,1.39-.1,3.36-1.87,5.9-1.78,2.54-4.39,5.28-7.85,8.21-.58,1.87-.98,3.6-1.22,5.18-.24,1.58-.32,2.84-.25,3.78.07.94.24,1.75.5,2.45.26.7.5,1.19.72,1.48.22.29.44.53.68.72,1.44,1.06,3.29.77,5.54-.86,4.22-2.98,8.93-8.11,14.11-15.41.24-.29.55-.47.94-.54Zm-13.97-9.32c-1.68,1.06-3.34,3.34-4.97,6.84,2.78-2.78,4.44-5.06,4.97-6.84Z"/>
        <path class="cls-1" d="m247.82,33.14c.24.29.34.62.29,1.01-.05.38-.24.7-.58.94-.58.38-1.13.36-1.66-.07-2.3-.82-18.48-.89-48.53-.22-3.12,13.1-6.29,27.31-9.5,42.62-3.84,18.48-6.17,31.18-6.98,38.09.1,0,.19.02.29.07.38.1.65.32.79.68s.14.71,0,1.04c-.24.77-.44,1.33-.61,1.69-.17.36-.42.72-.76,1.08-.33.36-.69.54-1.08.54-.14,0-.31-.02-.5-.07-.62-.19-1-.7-1.12-1.51-.12-.82-.06-1.92.18-3.31.19-2.02.62-4.92,1.3-8.71,1.2-7.2,3-16.56,5.4-28.08,3.22-15.55,6.46-30.24,9.72-44.06-3.26.05-7.32.14-12.17.29-7.68.19-12.19.29-13.54.29-.38,0-.71-.13-.97-.4-.26-.26-.4-.59-.4-.97,0-.24.06-.47.18-.68.12-.22.29-.38.5-.5.22-.12.44-.18.68-.18,1.34,0,5.83-.12,13.46-.36,4.75-.1,9.07-.19,12.96-.29,1.54-6.34,2.9-11.71,4.1-16.13.1-.38.31-.67.65-.86.34-.19.68-.24,1.04-.14.36.1.64.31.83.65.19.34.24.7.14,1.08-1.15,4.27-2.47,9.38-3.96,15.34,14.4-.38,25.27-.53,32.62-.43,7.34.1,11.96.25,13.86.47,1.9.22,3.01.59,3.35,1.12Z"/>
        <path class="cls-1" d="m299.73.74c.91.48,1.37,1.2,1.37,2.16s-.65,1.99-1.94,3.24c-1.3,1.25-3.87,2.9-7.71,4.97-.34.19-.68.23-1.04.11-.36-.12-.64-.35-.83-.68-.19-.34-.23-.68-.11-1.04.12-.36.35-.64.69-.83,4.51-2.45,7.2-4.3,8.06-5.54-1.2-.48-4.28-.35-9.25.4-4.97.74-11.2,2.27-18.68,4.57-2.64.82-5.35,1.7-8.13,2.66-1.06,4.94-3.07,14.28-6.05,28.01-2.4,10.99-4.22,19.44-5.47,25.34,5.81-1.68,11.18-2.47,16.13-2.38.38,0,.71.14.97.43.26.29.39.62.39,1.01s-.14.71-.43.97c-.29.26-.62.4-1.01.4-5.14-.1-10.7.79-16.7,2.66-4.9,22.9-7.7,37.56-8.42,43.99.1-.24.19-.46.29-.65.14-.38.4-.65.76-.79s.72-.14,1.08,0,.61.4.76.76c.14.36.14.71,0,1.04-.86,2.02-1.57,3.44-2.12,4.28-.55.84-1.14,1.26-1.76,1.26-.19,0-.38-.05-.58-.14-.72-.24-1.14-.91-1.26-2.02-.12-1.1.06-3.46.54-7.06.62-4.32,1.73-10.56,3.31-18.72,1.15-5.76,2.59-12.74,4.32-20.95-7.01,2.59-13.3,6.19-18.86,10.8-.24.19-.53.29-.86.29-.43,0-.79-.17-1.08-.5-.24-.29-.34-.62-.29-1.01.05-.38.22-.7.5-.94,6.24-5.18,13.34-9.12,21.31-11.81,1.25-6,3.17-14.98,5.76-26.93,2.78-12.77,4.68-21.53,5.69-26.28-13.78,5.04-25.32,10.68-34.63,16.92-.24.14-.5.22-.79.22-.48,0-.86-.19-1.15-.58-.19-.34-.25-.68-.18-1.04.07-.36.28-.66.61-.9,9.84-6.62,22.1-12.55,36.79-17.78.38-1.82.7-3.41.94-4.75.1-.38.3-.68.61-.9.31-.22.66-.29,1.04-.22.38.07.69.26.9.58.22.31.28.66.18,1.04-.19.96-.38,2.02-.58,3.17,2.02-.67,3.96-1.3,5.83-1.87,4.27-1.34,8.4-2.48,12.38-3.42s7.8-1.62,11.45-2.05c3.65-.43,6.07-.26,7.27.5Z"/>
        <path class="cls-1" d="m294.8,59.06c.36-.1.71-.05,1.04.14.33.19.54.48.61.86.07.38.01.74-.18,1.08-1.34,2.11-2.96,4.31-4.86,6.59-1.9,2.28-4.03,4.33-6.41,6.16s-4.38,2.74-6.01,2.74c-.58,0-1.08-.1-1.51-.29-3.21-1.39-3.55-7.03-1.01-16.92.1-.38.31-.67.65-.86.33-.19.68-.24,1.04-.14.36.1.64.31.83.65.19.34.24.67.14,1.01-.58,2.3-1,4.33-1.26,6.08-.26,1.75-.38,3.08-.36,4,.02.91.12,1.67.29,2.27.17.6.31.96.43,1.08.12.12.23.2.32.25,1.25.53,3.52-.72,6.8-3.74,3.29-3.02,6.13-6.48,8.53-10.37.24-.29.54-.48.9-.58Zm-15.95-5.62c-1.39-.1-1.82-.67-1.3-1.73.48-.86,1.1-1.44,1.87-1.73,1.2-.38,1.92-.07,2.16.94.24.96-.12,1.68-1.08,2.16-.48.24-1.03.36-1.66.36Z"/>
        <path class="cls-1" d="m322.92,59.24c.38-.07.73-.01,1.04.18.31.19.51.48.61.86.1.38.05.72-.14,1.01-2.69,4.37-6.38,8.58-11.09,12.64-4.71,4.06-8.69,6.08-11.95,6.08-.38,0-.75-.02-1.08-.07-2.3-.43-3.72-2.09-4.25-4.97-.1-.43-.01-.83.25-1.19.26-.36.83-.9,1.69-1.62,1.78-1.54,3.07-2.83,3.89-3.89.58-.77,1.06-1.57,1.44-2.41.38-.84.62-1.54.72-2.09.1-.55.1-1,0-1.33-1.1.43-2.54,2.04-4.32,4.82-1.3,2.02-2.6,4.54-3.92,7.56-1.32,3.02-2.32,5.54-2.99,7.56-.67,2.02-1.56,4.78-2.66,8.28l-.36,1.01c-.19.62-.62.94-1.3.94h-.22c-.24-.05-.44-.13-.61-.25-.17-.12-.3-.29-.4-.5-.1-.22-.14-.44-.14-.68,0-1.06,1.24-7.15,3.71-18.29s4.91-21.84,7.31-32.11c.05-.1.07-.22.07-.36.86-3.6,1.54-6.41,2.02-8.42,1.63-6.62,3.52-12.26,5.65-16.92,2.13-4.66,4-7.15,5.58-7.49.77-.14,1.39.12,1.87.79.53.62.61,1.92.25,3.89-.36,1.97-1.07,4.37-2.12,7.2-1.06,2.83-2.5,6.13-4.32,9.9-1.82,3.77-3.91,7.79-6.26,12.06-2.35,9.94-4.71,20.26-7.06,30.96,1.15-2.54,2.33-4.75,3.53-6.62,2.74-4.22,5.09-6.26,7.06-6.12,1.01.1,1.7.62,2.09,1.58.48,1.01.48,2.34,0,4-.48,1.66-1.3,3.25-2.45,4.79-.91,1.15-2.33,2.57-4.25,4.25-.43.38-.72.65-.86.79.33,1.25.96,1.97,1.87,2.16,2.16.38,5.51-1.22,10.04-4.82,4.54-3.6,8.27-7.78,11.2-12.53.19-.33.48-.54.86-.61Zm-12.02-47.63c-2.59,3.79-5.04,10.06-7.34,18.79,4.18-8.5,6.62-14.76,7.34-18.79Z"/>
        <path class="cls-1" d="m351.61,59.24c.36-.12.71-.1,1.04.07.34.17.58.43.72.79.14.36.12.71-.07,1.04-1.3,2.78-2.76,5.64-4.39,8.57-1.63,2.93-3.42,5.89-5.36,8.89-1.94,3-3.88,5.45-5.8,7.34-1.92,1.9-3.55,2.84-4.9,2.84-.34,0-.65-.07-.94-.22-1.97-.77-2.59-3.74-1.87-8.93.67-4.85,2.45-11.71,5.33-20.59-.05,0-.08.01-.11.04-.02.02-.06.04-.11.04-1.06.72-1.93,1.27-2.63,1.66-.7.38-1.63.82-2.81,1.3-1.18.48-2.29.7-3.35.65-1.06-.05-2.04-.38-2.95-1.01-1.83-1.3-2.76-3.1-2.81-5.4-.05-2.3.82-4.82,2.59-7.56,1.1-1.73,2.44-3.24,4-4.54s2.89-1.58,4-.86c.67.38,1.07,1.01,1.19,1.87.12.86-.3,2.53-1.26,5-.96,2.47-2.57,5.7-4.82,9.68,1.49.19,3.94-.84,7.34-3.1.62-.43,1.09-.73,1.4-.9.31-.17.67-.35,1.08-.54.41-.19.76-.26,1.04-.22.29.05.58.17.86.36.72.58.84,1.58.36,3.02-4.8,14.88-6.7,23.9-5.69,27.07.1.19.17.34.22.43.38.05.97-.26,1.76-.94.79-.67,1.78-1.73,2.95-3.17,1.18-1.44,2.45-3.17,3.82-5.18,1.37-2.02,2.88-4.49,4.54-7.42,1.66-2.93,3.25-6.05,4.79-9.36.19-.38.47-.64.83-.76Zm-27.97-4.86c-.43,1.68-.34,3.02.29,4.03,3.5-6.1,5.38-10.22,5.62-12.38-.58.34-1.24.89-1.98,1.66-.75.77-1.51,1.76-2.3,2.99-.79,1.22-1.33,2.46-1.62,3.71Z"/>
        <path class="cls-1" d="m373.1,59.31c.38-.07.73,0,1.04.22.31.22.49.52.54.9.05.38-.03.72-.22,1.01-5.42,7.58-10.37,12.96-14.83,16.13-1.78,1.25-3.53,1.87-5.26,1.87-1.34,0-2.52-.36-3.53-1.08-.58-.43-1.09-1.01-1.55-1.73-.46-.72-.85-1.73-1.19-3.02-.33-1.3-.4-3-.18-5.11.22-2.11.76-4.51,1.62-7.2v-.07c1.34-4.37,2.98-7.82,4.9-10.37,1.92-2.54,3.65-3.84,5.18-3.89,1.1-.05,1.82.43,2.16,1.44.53,1.39-.1,3.36-1.87,5.9-1.78,2.54-4.39,5.28-7.85,8.21-.58,1.87-.98,3.6-1.22,5.18-.24,1.58-.32,2.84-.25,3.78.07.94.24,1.75.5,2.45.26.7.5,1.19.72,1.48.22.29.44.53.68.72,1.44,1.06,3.29.77,5.54-.86,4.22-2.98,8.93-8.11,14.11-15.41.24-.29.55-.47.94-.54Zm-13.97-9.32c-1.68,1.06-3.34,3.34-4.97,6.84,2.78-2.78,4.44-5.06,4.97-6.84Z"/>
      </g>
      <g>
        <path class="cls-1" d="m22.37,115.84c1.44,0,2.66.46,3.66,1.37,1.01.91,1.51,2.02,1.5,3.32v1.03h-4.38v-.27c0-.54-.2-.98-.6-1.34-.39-.38-.88-.56-1.46-.54h-9.62c-.56,0-1.05.18-1.46.55-.4.34-.6.79-.6,1.32v5.16c0,.52.2.96.61,1.34.41.35.89.53,1.45.54h9.62c.59-.02,1.07-.21,1.46-.55.4-.38.6-.82.6-1.32v-.25h4.38v1.01c0,1.3-.49,2.4-1.5,3.32-1,.91-2.22,1.37-3.66,1.37h-12.2c-1.43,0-2.65-.46-3.66-1.37-1-.91-1.5-2.02-1.5-3.32v-6.68c0-1.3.5-2.4,1.51-3.32s2.22-1.37,3.64-1.37h12.2Z"/>
        <path class="cls-1" d="m45.67,117.88c1.39,0,2.57.44,3.53,1.32.98.87,1.46,1.94,1.46,3.21,0,1.09-.39,2.05-1.16,2.89-.77.81-1.74,1.32-2.91,1.54l4.49,5.05h-4.86l-4.11-4.95h-5.92v4.95h-4.14v-14.02h13.62Zm-9.48,5.7h9.12c.4,0,.7-.11.91-.32.23-.21.34-.49.34-.83s-.11-.62-.34-.83c-.21-.21-.52-.31-.91-.3h-9.12v2.29Z"/>
        <path class="cls-1" d="m72.86,117.88v3.41h-13.12v1.86h11.38v3.35h-11.38v1.98h13.12v3.41h-17.27v-14.02h17.27Z"/>
        <path class="cls-1" d="m89.5,117.88l8.91,14.02h-4.48l-1.89-2.99h-8.99l-1.91,2.99h-4.48l8.92-14.02h3.91Zm-4.38,7.77h4.86l-2.43-3.82-2.44,3.82Z"/>
        <path class="cls-1" d="m118.15,117.88v3.41h-7.08v10.61h-4.12v-10.61h-7.08v-3.41h18.28Z"/>
        <path class="cls-1" d="m126.79,117.88v14.02h-4.12v-14.02h4.12Z"/>
        <path class="cls-1" d="m135.37,117.88l6.01,10.05,6-10.05h4.78l-8.51,14.02h-4.56l-8.51-14.02h4.78Z"/>
        <path class="cls-1" d="m173.25,117.88v3.41h-13.12v1.86h11.38v3.35h-11.38v1.98h13.12v3.41h-17.27v-14.02h17.27Z"/>
        <path class="cls-1" d="m208.91,115.84c.95,0,1.85.21,2.7.62.88.41,1.56.98,2.05,1.71.54.73.8,1.51.77,2.36v6.68c.02.84-.24,1.63-.79,2.36-.52.73-1.2,1.3-2.05,1.71-.82.41-1.71.62-2.68.62h-17.04v-16.05h17.04Zm-12.66,12.48h11.73c.59-.02,1.07-.21,1.46-.55.4-.38.6-.82.6-1.32v-5.16c0-.54-.2-.98-.6-1.34-.39-.38-.88-.56-1.46-.54h-11.73v8.91Z"/>
        <path class="cls-1" d="m236.25,117.88v3.41h-13.12v1.86h11.38v3.35h-11.38v1.98h13.12v3.41h-17.27v-14.02h17.27Z"/>
        <path class="cls-1" d="m245.51,117.88h8.7c1.3,0,2.41.42,3.33,1.27.92.83,1.38,1.84,1.38,3.04v.08h-4.03v-.08c0-.26-.08-.46-.27-.61-.19-.17-.41-.26-.68-.26h-7.75c-.26.01-.48.1-.68.27-.18.16-.27.36-.27.61,0,.23.09.44.28.62.19.16.41.25.67.25.91,0,2.33,0,4.24-.01,1.91-.02,3.32-.02,4.23,0,1.34,0,2.48.43,3.42,1.3.97.86,1.44,1.9,1.42,3.13.02,1.22-.45,2.26-1.42,3.13-.94.86-2.08,1.29-3.42,1.29h-9.06c-1.34,0-2.48-.43-3.42-1.29-.95-.87-1.42-1.91-1.42-3.13v-.07h3.9v.09c0,.27.12.52.33.73.22.2.48.29.79.29h8.53c.31,0,.58-.1.8-.29s.32-.43.32-.71c0-.28-.11-.52-.33-.73-.21-.22-.47-.32-.78-.29h-8.79c-1.29,0-2.4-.42-3.34-1.27-.91-.84-1.38-1.86-1.38-3.05,0-1.17.45-2.17,1.36-2.99.91-.83,2.01-1.27,3.29-1.31h.06Z"/>
        <path class="cls-1" d="m268.17,117.88v14.02h-4.13v-14.02h4.13Z"/>
        <path class="cls-1" d="m292.05,117.88v3.41h-13.69c-.42,0-.79.13-1.1.41-.3.27-.45.6-.45,1v4.38c0,.38.15.71.46,1,.3.25.67.39,1.09.41h10.03v-1.75h-4.65v-3.26h8.79v8.41h-15.26c-1.27,0-2.35-.41-3.26-1.22-.89-.81-1.34-1.79-1.34-2.94v-5.68c.02-1.16.47-2.14,1.35-2.95.91-.81,2-1.22,3.25-1.22h14.78Z"/>
        <path class="cls-1" d="m301.05,117.88l11.53,9.34v-9.34h4.14v14.02h-4.02l-11.52-9.34v9.34h-4.14v-14.02h4.01Z"/>
        <path class="cls-1" d="m338.5,117.88v3.41h-13.12v1.86h11.38v3.35h-11.38v1.98h13.12v3.41h-17.27v-14.02h17.27Z"/>
        <path class="cls-1" d="m356.62,117.88c1.39,0,2.57.44,3.53,1.32.98.87,1.46,1.94,1.46,3.21,0,1.09-.39,2.05-1.16,2.89-.77.81-1.74,1.32-2.91,1.54l4.49,5.05h-4.86l-4.11-4.95h-5.92v4.95h-4.14v-14.02h13.62Zm-9.48,5.7h9.12c.4,0,.7-.11.91-.32.23-.21.34-.49.34-.83s-.11-.62-.34-.83c-.21-.21-.52-.31-.91-.3h-9.12v2.29Z"/>
      </g>
    </g>
  </g>
</svg>